# xmcd CD database file
#
# Track frame offsets:
#	151
#	24698
#	54821
#	82249
#	111501
#	132051
#	167072
#	194800
#	218983
#	251275
#	280247
#	296319
#
# Disc length: 4158 seconds
#
# Revision: 0
# Processed by: cddbd v1.4PL0 Copyright (c) Steve Scherf et al.
# Submitted via: CDex 1.50beta10
#
DISCID=b3103c0c
DTITLE=Dave Pietro - Standard Wonder
DYEAR=2000
DGENRE=Jazz
TTITLE0=Too High
TTITLE1=All In Love Is Fair
TTITLE2=Smile Please
TTITLE3=Go Home
TTITLE4=You And I - Interlude
TTITLE5=The Secret Life Of Plants
TTITLE6=Confusion
TTITLE7=Happier Than The Morning Sun
TTITLE8=Visions
TTITLE9=Another Star
TTITLE10=Overjoyed
TTITLE11=Come Back As A Flower
EXTD=YEAR: 2000
EXTT0=
EXTT1=
EXTT2=
EXTT3=
EXTT4=
EXTT5=
EXTT6=
EXTT7=
EXTT8=
EXTT9=
EXTT10=
EXTT11=
PLAYORDER=
